<svg width="16" height="16" viewBox="0 0 16 16" fill="none" xmlns="http://www.w3.org/2000/svg">
<path d="M1.33325 6.66683H14.6666V5.46683C14.6666 4.72009 14.6666 4.34673 14.5213 4.06151C14.3934 3.81063 14.1895 3.60665 13.9386 3.47882C13.6534 3.3335 13.28 3.3335 12.5333 3.3335H3.46659C2.71985 3.3335 2.34648 3.3335 2.06126 3.47882C1.81038 3.60665 1.60641 3.81063 1.47858 4.06151C1.33325 4.34672 1.33325 4.72009 1.33325 5.46683V10.5335C1.33325 11.2802 1.33325 11.6536 1.47858 11.9388C1.60641 12.1897 1.81038 12.3937 2.06126 12.5215C2.34648 12.6668 2.71985 12.6668 3.46659 12.6668H7.33325M9.66659 14.0002L11.0166 13.7302C11.1343 13.7066 11.1931 13.6949 11.248 13.6733C11.2967 13.6542 11.343 13.6294 11.3859 13.5995C11.4343 13.5658 11.4767 13.5233 11.5616 13.4385L14.3333 10.6668C14.7014 10.2986 14.7014 9.70169 14.3333 9.3335C13.9651 8.96531 13.3681 8.96531 12.9999 9.3335L10.2283 12.1051C10.1434 12.19 10.101 12.2325 10.0672 12.2808C10.0373 12.3237 10.0125 12.37 9.99342 12.4187C9.97189 12.4736 9.96012 12.5325 9.93658 12.6502L9.66659 14.0002Z" stroke="#8020E7" stroke-linecap="round" stroke-linejoin="round"/>
</svg>
