<svg width="16" height="16" viewBox="0 0 16 16" fill="none" xmlns="http://www.w3.org/2000/svg">
<path d="M3.99992 7.33317V9.99984M11.9999 5.99984V8.6665M11.3333 2.6665C12.9657 2.6665 13.8487 2.91634 14.288 3.11013C14.3465 3.13594 14.3758 3.14884 14.4602 3.22942C14.5108 3.27772 14.6032 3.41943 14.6269 3.48523C14.6666 3.595 14.6666 3.655 14.6666 3.775V10.9406C14.6666 11.5464 14.6666 11.8494 14.5757 12.0051C14.4833 12.1635 14.3942 12.2371 14.2212 12.298C14.0512 12.3578 13.7079 12.2918 13.0214 12.1599C12.5408 12.0676 11.9709 11.9998 11.3333 11.9998C9.33325 11.9998 7.33325 13.3332 4.66659 13.3332C3.03411 13.3332 2.15116 13.0833 1.71184 12.8895C1.65333 12.8637 1.62408 12.8508 1.53965 12.7703C1.48904 12.722 1.39666 12.5802 1.3729 12.5144C1.33325 12.4047 1.33325 12.3447 1.33325 12.2247L1.33325 5.05907C1.33325 4.45323 1.33325 4.15031 1.4241 3.9946C1.51652 3.83621 1.60565 3.76258 1.77862 3.70171C1.94868 3.64187 2.29194 3.70783 2.97847 3.83974C3.459 3.93206 4.02891 3.99984 4.66659 3.99984C6.66659 3.99984 8.66659 2.6665 11.3333 2.6665ZM9.66659 7.99984C9.66659 8.92031 8.92039 9.6665 7.99992 9.6665C7.07944 9.6665 6.33325 8.92031 6.33325 7.99984C6.33325 7.07936 7.07944 6.33317 7.99992 6.33317C8.92039 6.33317 9.66659 7.07936 9.66659 7.99984Z" stroke="#2087E7" stroke-linecap="round" stroke-linejoin="round"/>
</svg>
