<svg width="16" height="16" viewBox="0 0 16 16" fill="none" xmlns="http://www.w3.org/2000/svg">
<path d="M1.66663 7.99984C1.66663 5.01428 1.66663 3.52149 2.59412 2.594C3.52162 1.6665 5.0144 1.6665 7.99996 1.6665C10.9855 1.6665 12.4783 1.6665 13.4058 2.594C14.3333 3.52149 14.3333 5.01428 14.3333 7.99984C14.3333 10.9854 14.3333 12.4782 13.4058 13.4057C12.4783 14.3332 10.9855 14.3332 7.99996 14.3332C5.0144 14.3332 3.52162 14.3332 2.59412 13.4057C1.66663 12.4782 1.66663 10.9854 1.66663 7.99984Z" stroke="#808080" stroke-linejoin="round"/>
<path d="M5.66663 6.6665C5.11434 6.6665 4.66663 6.21879 4.66663 5.6665C4.66663 5.11422 5.11434 4.6665 5.66663 4.6665C6.21891 4.6665 6.66663 5.11422 6.66663 5.6665C6.66663 6.21879 6.21891 6.6665 5.66663 6.6665Z" stroke="#808080"/>
<path d="M10.3333 11.333C10.8855 11.333 11.3333 10.8853 11.3333 10.333C11.3333 9.78072 10.8855 9.33301 10.3333 9.33301C9.78097 9.33301 9.33325 9.78072 9.33325 10.333C9.33325 10.8853 9.78097 11.333 10.3333 11.333Z" stroke="#808080"/>
<path d="M6.66659 5.6665L11.3333 5.6665" stroke="#808080" stroke-linecap="round"/>
<path d="M9.33329 10.333L4.66663 10.333" stroke="#808080" stroke-linecap="round"/>
</svg>
