<svg width="16" height="16" viewBox="0 0 16 16" fill="none" xmlns="http://www.w3.org/2000/svg">
<path d="M7.00004 13.3333H9.00004C11.5058 13.3333 12.7586 13.3333 13.5951 12.6728C13.7289 12.5671 13.8526 12.4506 13.9648 12.3247C14.6667 11.5375 14.6667 10.3583 14.6667 8C14.6667 7.21125 14.6667 6.5544 14.6404 6H1.35963C1.33337 6.5544 1.33337 7.21125 1.33337 8C1.33337 10.3583 1.33337 11.5375 2.03524 12.3247C2.1475 12.4506 2.27123 12.5671 2.40501 12.6728C3.24146 13.3333 4.49432 13.3333 7.00004 13.3333Z" stroke="#808080" stroke-linecap="round" stroke-linejoin="round"/>
<path d="M8.99978 2.6665H6.99978C4.49407 2.6665 3.24121 2.6665 2.40475 3.32708C2.27097 3.43274 2.14724 3.54919 2.03498 3.6751C1.56786 4.19905 1.41163 4.8966 1.35938 5.99984H14.6402C14.5879 4.8966 14.4317 4.19905 13.9646 3.6751C13.8523 3.54919 13.7286 3.43274 13.5948 3.32708C12.7584 2.6665 11.5055 2.6665 8.99978 2.6665Z" fill="white"/>
<path d="M1.33337 7.99984C1.33337 5.64151 1.33337 4.46235 2.03524 3.6751C2.1475 3.54919 2.27123 3.43274 2.40501 3.32708C3.24146 2.6665 4.49432 2.6665 7.00004 2.6665H9.00004C11.5058 2.6665 12.7586 2.6665 13.5951 3.32708C13.7289 3.43274 13.8526 3.54919 13.9648 3.6751C14.6667 4.46235 14.6667 5.64151 14.6667 7.99984C14.6667 10.3582 14.6667 11.5373 13.9648 12.3246C13.8526 12.4505 13.7289 12.5669 13.5951 12.6726C12.7586 13.3332 11.5058 13.3332 9.00004 13.3332H7.00004C4.49432 13.3332 3.24146 13.3332 2.40501 12.6726C2.27123 12.5669 2.1475 12.4505 2.03524 12.3246C1.33337 11.5373 1.33337 10.3582 1.33337 7.99984Z" stroke="#808080" stroke-linecap="round" stroke-linejoin="round"/>
<path d="M6.66675 10.6665H7.66675" stroke="#808080" stroke-miterlimit="10" stroke-linecap="round" stroke-linejoin="round"/>
<path d="M9.66675 10.6665L12.0001 10.6665" stroke="#808080" stroke-miterlimit="10" stroke-linecap="round" stroke-linejoin="round"/>
<path d="M1.33337 6H14.6667" stroke="#808080" stroke-linejoin="round"/>
</svg>
