<svg width="16" height="16" viewBox="0 0 16 16" fill="none" xmlns="http://www.w3.org/2000/svg">
<g clip-path="url(#clip0_112_6161)">
<path d="M1.97326 10.3777C1.77799 10.573 1.77799 10.8896 1.97326 11.0848C2.16852 11.2801 2.4851 11.2801 2.68036 11.0848L1.97326 10.3777ZM7.40288 14.6479L7.34454 14.1513L7.40288 14.6479ZM6.93812 14.662L6.96674 14.1628L6.93812 14.662ZM14.6624 6.93775L14.1632 6.96637L14.6624 6.93775ZM14.6483 7.40251L14.1517 7.34417L14.6483 7.40251ZM5.19426 3.89892L4.84071 3.54537L5.19426 3.89892ZM8.5972 1.35142L8.65554 1.848L8.5972 1.35142ZM9.06196 1.33734L9.03334 1.83652L9.06196 1.33734ZM3.89929 5.1939L4.25284 5.54745H4.25284L3.89929 5.1939ZM1.35179 8.59684L1.84837 8.65518L1.35179 8.59684ZM1.3377 9.0616L1.83688 9.03297L1.3377 9.0616ZM2.68036 11.0848L11.0852 2.68004L10.378 1.97294L1.97326 10.3777L2.68036 11.0848ZM4.25284 5.54745L5.54782 4.25248L4.84071 3.54537L3.54574 4.84034L4.25284 5.54745ZM11.7472 10.4519L10.4523 11.7469L11.1594 12.454L12.4543 11.159L11.7472 10.4519ZM10.4523 11.7469C9.63276 12.5664 9.04734 13.1507 8.5478 13.5489C8.05549 13.9412 7.69755 14.1099 7.34454 14.1513L7.46122 15.1445C8.07752 15.0721 8.60983 14.7782 9.17107 14.3309C9.72506 13.8893 10.3565 13.2569 11.1594 12.454L10.4523 11.7469ZM3.32991 12.6698C4.08406 13.424 4.68253 14.0238 5.21585 14.4365C5.7602 14.8577 6.28761 15.1255 6.9095 15.1612L6.96674 14.1628C6.62445 14.1432 6.28802 14.0017 5.82783 13.6456C5.35662 13.281 4.80985 12.7355 4.03701 11.9627L3.32991 12.6698ZM7.34454 14.1513C7.21806 14.1662 7.09164 14.17 6.96674 14.1628L6.9095 15.1612C7.09303 15.1717 7.27763 15.1661 7.46122 15.1445L7.34454 14.1513ZM11.9631 4.03665C12.7359 4.80948 13.2813 5.35625 13.646 5.82746C14.002 6.28765 14.1436 6.62408 14.1632 6.96637L15.1616 6.90913C15.1259 6.28724 14.858 5.75984 14.4368 5.21548C14.0241 4.68216 13.4243 4.08369 12.6702 3.32954L11.9631 4.03665ZM12.4543 11.159C13.2573 10.3561 13.8897 9.7247 14.3313 9.1707C14.7786 8.60947 15.0725 8.07715 15.1449 7.46085L14.1517 7.34417C14.1102 7.69718 13.9416 8.05513 13.5492 8.54743C13.1511 9.04697 12.5667 9.63239 11.7472 10.4519L12.4543 11.159ZM14.1632 6.96637C14.1704 7.09128 14.1666 7.21769 14.1517 7.34417L15.1449 7.46085C15.1664 7.27727 15.1721 7.09266 15.1616 6.90913L14.1632 6.96637ZM5.54782 4.25248C6.36733 3.43297 6.95275 2.84861 7.45228 2.45047C7.94459 2.0581 8.30254 1.88948 8.65554 1.848L8.53886 0.854835C7.92256 0.927238 7.39025 1.22116 6.82902 1.66846C6.27502 2.11001 5.64362 2.74246 4.84071 3.54537L5.54782 4.25248ZM12.6702 3.32954C11.916 2.57539 11.3176 1.97558 10.7842 1.56289C10.2399 1.14167 9.71247 0.873813 9.09058 0.838156L9.03334 1.83652C9.37564 1.85614 9.71207 1.99767 10.1723 2.35376C10.6435 2.71839 11.1902 3.26381 11.9631 4.03665L12.6702 3.32954ZM8.65554 1.848C8.78203 1.83315 8.90844 1.82935 9.03334 1.83652L9.09058 0.838156C8.90706 0.827632 8.72245 0.833267 8.53886 0.854835L8.65554 1.848ZM3.54574 4.84034C2.74283 5.64326 2.11037 6.27465 1.66883 6.82865C1.22152 7.38988 0.927604 7.9222 0.855201 8.5385L1.84837 8.65518C1.88984 8.30217 2.05847 7.94422 2.45084 7.45192C2.84897 6.95238 3.43333 6.36696 4.25284 5.54745L3.54574 4.84034ZM4.03701 11.9627C3.26418 11.1899 2.71876 10.6431 2.35413 10.1719C1.99804 9.7117 1.85651 9.37527 1.83688 9.03297L0.838522 9.09022C0.87418 9.71211 1.14204 10.2395 1.56326 10.7839C1.97595 11.3172 2.57576 11.9157 3.32991 12.6698L4.03701 11.9627ZM0.855201 8.5385C0.833633 8.72208 0.827999 8.90669 0.838522 9.09022L1.83688 9.03297C1.82972 8.90807 1.83351 8.78166 1.84837 8.65518L0.855201 8.5385Z" fill="#808080"/>
<path d="M8.69601 10.378C8.50074 10.5733 8.50074 10.8898 8.69601 11.0851C8.89127 11.2804 9.20785 11.2804 9.40311 11.0851L8.69601 10.378ZM10.0335 10.4547C10.2287 10.2595 10.2287 9.9429 10.0335 9.74763C9.83821 9.55237 9.52163 9.55237 9.32637 9.74763L10.0335 10.4547ZM10.5871 8.48691C10.3918 8.68218 10.3918 8.99876 10.5871 9.19402C10.7823 9.38928 11.0989 9.38928 11.2942 9.19402L10.5871 8.48691ZM12.765 7.72318C12.9603 7.52792 12.9603 7.21134 12.765 7.01608C12.5698 6.82081 12.2532 6.82081 12.0579 7.01608L12.765 7.72318ZM9.40311 11.0851L10.0335 10.4547L9.32637 9.74763L8.69601 10.378L9.40311 11.0851ZM11.2942 9.19402L12.765 7.72318L12.0579 7.01608L10.5871 8.48691L11.2942 9.19402Z" fill="#808080"/>
<path d="M2.66675 14.6665H13.3334" stroke="#808080" stroke-linecap="round"/>
</g>
<defs>
<clipPath id="clip0_112_6161">
<rect width="16" height="16" fill="white"/>
</clipPath>
</defs>
</svg>
