<svg width="28" height="28" viewBox="0 0 28 28" fill="none" xmlns="http://www.w3.org/2000/svg">
<circle cx="14" cy="14" r="14" fill="#014DAF"/>
<path d="M20.6667 12.6668H7.33337M20.6667 13.3335V11.4668C20.6667 10.7201 20.6667 10.3467 20.5214 10.0615C20.3936 9.81063 20.1896 9.60665 19.9387 9.47882C19.6535 9.3335 19.2801 9.3335 18.5334 9.3335H9.46671C8.71997 9.3335 8.3466 9.3335 8.06139 9.47882C7.8105 9.60665 7.60653 9.81063 7.4787 10.0615C7.33337 10.3467 7.33337 10.7201 7.33337 11.4668V16.5335C7.33337 17.2802 7.33337 17.6536 7.4787 17.9388C7.60653 18.1897 7.8105 18.3937 8.06139 18.5215C8.3466 18.6668 8.71997 18.6668 9.46671 18.6668H13.6667M18 20.0002C18 20.0002 20 19.0469 20 17.617V15.9488L18.5416 15.4276C18.1912 15.3021 17.808 15.3021 17.4576 15.4276L16 15.9488V17.617C16 19.0469 18 20.0002 18 20.0002Z" stroke="white" stroke-linecap="round" stroke-linejoin="round"/>
</svg>
