<svg width="16" height="16" viewBox="0 0 16 16" fill="none" xmlns="http://www.w3.org/2000/svg">
<g clip-path="url(#clip0_112_6173)">
<path d="M2.66675 10L2.66675 12.6667" stroke="#808080" stroke-linecap="round" stroke-linejoin="round"/>
<path d="M8 6L8 12.6667" stroke="#808080" stroke-linecap="round" stroke-linejoin="round"/>
<path d="M14.6667 14.667L1.33341 14.667" stroke="#808080" stroke-linecap="round" stroke-linejoin="round"/>
<path d="M13.3334 8.66699L13.3334 12.667" stroke="#808080" stroke-linecap="round" stroke-linejoin="round"/>
<path d="M3.73344 5.86678C3.49018 5.54296 3.1029 5.3335 2.66671 5.3335C1.93033 5.3335 1.33337 5.93045 1.33337 6.66683C1.33337 7.40321 1.93033 8.00016 2.66671 8.00016C3.40309 8.00016 4.00004 7.40321 4.00004 6.66683C4.00004 6.36665 3.90084 6.08963 3.73344 5.86678ZM3.73344 5.86678L6.93331 3.46688M6.93331 3.46688C7.17657 3.7907 7.56384 4.00016 8.00004 4.00016C8.52203 4.00016 8.97397 3.7002 9.19287 3.26324M6.93331 3.46688C6.76591 3.24403 6.66671 2.96701 6.66671 2.66683C6.66671 1.93045 7.26366 1.3335 8.00004 1.3335C8.73642 1.3335 9.33337 1.93045 9.33337 2.66683C9.33337 2.88122 9.28278 3.08378 9.19287 3.26324M9.19287 3.26324L12.1405 4.73708M12.1405 4.73708C12.0506 4.91654 12 5.11911 12 5.3335C12 6.06988 12.597 6.66683 13.3334 6.66683C14.0698 6.66683 14.6667 6.06988 14.6667 5.3335C14.6667 4.59712 14.0698 4.00016 13.3334 4.00016C12.8114 4.00016 12.3594 4.30012 12.1405 4.73708Z" stroke="#808080"/>
</g>
<defs>
<clipPath id="clip0_112_6173">
<rect width="16" height="16" fill="white"/>
</clipPath>
</defs>
</svg>
