<svg width="32" height="32" viewBox="0 0 32 32" fill="none" xmlns="http://www.w3.org/2000/svg">
<rect width="32" height="32" rx="16" fill="#F2F4F7"/>
<g opacity="0.08">
<rect x="0.3" y="0.3" width="31.4" height="31.4" rx="15.7" stroke="#101828" stroke-width="0.6"/>
</g>
<path d="M22.4001 23.1998C22.4001 22.0834 22.4001 21.5251 22.2623 21.0709C21.9521 20.0482 21.1517 19.2478 20.129 18.9376C19.6748 18.7998 19.1165 18.7998 18.0001 18.7998H14.0001C12.8836 18.7998 12.3254 18.7998 11.8712 18.9376C10.8485 19.2478 10.0481 20.0482 9.73789 21.0709C9.6001 21.5251 9.6001 22.0834 9.6001 23.1998M19.6001 12.3998C19.6001 14.388 17.9883 15.9998 16.0001 15.9998C14.0119 15.9998 12.4001 14.388 12.4001 12.3998C12.4001 10.4116 14.0119 8.7998 16.0001 8.7998C17.9883 8.7998 19.6001 10.4116 19.6001 12.3998Z" stroke="#475467" stroke-width="1.6" stroke-linecap="round" stroke-linejoin="round"/>
</svg>
