<svg width="16" height="16" viewBox="0 0 16 16" fill="none" xmlns="http://www.w3.org/2000/svg">
<path d="M4.38505 10.3212C3.44187 10.8828 0.96891 12.0296 2.47511 13.4645C3.21087 14.1655 4.03033 14.6668 5.06058 14.6668H10.9394C11.9697 14.6668 12.7891 14.1655 13.5249 13.4645C15.0311 12.0296 12.5581 10.8828 11.615 10.3212C9.40321 9.00425 6.59679 9.00426 4.38505 10.3212Z" stroke="#808080" stroke-linecap="round" stroke-linejoin="round"/>
<path d="M4.38505 10.3212C3.44187 10.8828 0.96891 12.0296 2.47511 13.4645C3.21087 14.1655 4.03033 14.6668 5.06058 14.6668H10.9394C11.9697 14.6668 12.7891 14.1655 13.5249 13.4645C15.0311 12.0296 12.5581 10.8828 11.615 10.3212C9.40321 9.00425 6.59679 9.00426 4.38505 10.3212Z" stroke="#808080" stroke-linecap="round" stroke-linejoin="round"/>
<path d="M11 4.3335C11 5.99035 9.65685 7.3335 8 7.3335C6.34315 7.3335 5 5.99035 5 4.3335C5 2.67664 6.34315 1.3335 8 1.3335C9.65685 1.3335 11 2.67664 11 4.3335Z" fill="white"/>
<path d="M11 4.3335C11 5.99035 9.65685 7.3335 8 7.3335C6.34315 7.3335 5 5.99035 5 4.3335C5 2.67664 6.34315 1.3335 8 1.3335C9.65685 1.3335 11 2.67664 11 4.3335Z" fill="white"/>
<path d="M11 4.3335C11 5.99035 9.65685 7.3335 8 7.3335C6.34315 7.3335 5 5.99035 5 4.3335C5 2.67664 6.34315 1.3335 8 1.3335C9.65685 1.3335 11 2.67664 11 4.3335Z" stroke="#808080"/>
</svg>
