<svg width="16" height="16" viewBox="0 0 16 16" fill="none" xmlns="http://www.w3.org/2000/svg">
<path d="M13.8494 12C14.3489 12 14.7462 11.6856 15.103 11.2461C15.8333 10.3463 14.6342 9.62723 14.1769 9.27507C13.712 8.91708 13.1929 8.71428 12.6667 8.66667M12 7.33333C12.9205 7.33333 13.6667 6.58714 13.6667 5.66667C13.6667 4.74619 12.9205 4 12 4" stroke="#808080" stroke-linecap="round"/>
<path d="M2.1506 12C1.65106 12 1.25374 11.6856 0.89699 11.2461C0.166685 10.3463 1.36574 9.62723 1.82306 9.27507C2.28794 8.91708 2.80701 8.71428 3.33329 8.66667M3.66663 7.33333C2.74615 7.33333 1.99996 6.58714 1.99996 5.66667C1.99996 4.74619 2.74615 4 3.66663 4" stroke="#808080" stroke-linecap="round"/>
<path d="M5.38916 10.0738C4.70798 10.495 2.92195 11.3551 4.00976 12.4313C4.54115 12.957 5.13297 13.333 5.87704 13.333H10.1229C10.8669 13.333 11.4588 12.957 11.9902 12.4313C13.078 11.3551 11.2919 10.495 10.6108 10.0738C9.01339 9.08608 6.98653 9.08608 5.38916 10.0738Z" stroke="#808080" stroke-linecap="round" stroke-linejoin="round"/>
<path d="M10.3333 4.99984C10.3333 6.2885 9.28862 7.33317 7.99996 7.33317C6.71129 7.33317 5.66663 6.2885 5.66663 4.99984C5.66663 3.71117 6.71129 2.6665 7.99996 2.6665C9.28862 2.6665 10.3333 3.71117 10.3333 4.99984Z" stroke="#808080"/>
</svg>
